<svg width="16" height="15" viewBox="0 0 16 15" fill="none" xmlns="http://www.w3.org/2000/svg">
<path fill-rule="evenodd" clip-rule="evenodd" d="M1.95286 13.5471V13.5445C1.90729 13.0312 1.8747 12.5168 1.85511 12.0018C1.80581 10.7608 1.81261 9.28773 1.97581 8.19378C1.98911 8.12521 2.02395 8.06267 2.07526 8.01528L8.66616 1.42438C8.74586 1.3447 8.85394 1.29994 8.96663 1.29994C9.07933 1.29994 9.18741 1.3447 9.26711 1.42438L14.0756 6.23283C14.1552 6.31253 14.2 6.42061 14.2 6.5333C14.2 6.646 14.1552 6.75408 14.0756 6.83378L7.48466 13.4247C7.43726 13.476 7.37473 13.5108 7.30616 13.5241C6.21221 13.6873 4.73916 13.6941 3.49816 13.6448C2.98316 13.6254 2.46874 13.5928 1.95541 13.5471H1.95286ZM1.20146 14.2985C1.11901 14.2203 0.785807 10.4165 1.13601 8.06798C1.17341 7.81808 1.29751 7.59198 1.47601 7.41348L8.06606 0.822577C8.30516 0.583551 8.6294 0.449274 8.96748 0.449274C9.30557 0.449274 9.62981 0.583551 9.86891 0.822577L14.6774 5.63103C14.9164 5.87013 15.0507 6.19437 15.0507 6.53245C15.0507 6.87054 14.9164 7.19478 14.6774 7.43388L8.08561 14.0265C7.90956 14.2071 7.6801 14.3263 7.43111 14.3665C5.08256 14.7158 1.27881 14.3835 1.20061 14.3002L1.20146 14.2985Z" fill="black"/>
<path fill-rule="evenodd" clip-rule="evenodd" d="M5.43961 9.98808C5.39901 9.94888 5.36664 9.90198 5.34436 9.85013C5.32209 9.79828 5.31036 9.74251 5.30987 9.68608C5.30938 9.62965 5.32014 9.57368 5.34151 9.52145C5.36287 9.46922 5.39443 9.42177 5.43434 9.38186C5.47424 9.34196 5.52169 9.3104 5.57392 9.28903C5.62616 9.26766 5.68212 9.25691 5.73855 9.2574C5.79498 9.25789 5.85075 9.26962 5.9026 9.29189C5.95445 9.31416 6.00135 9.34654 6.04056 9.38713C6.11797 9.46729 6.16081 9.57464 6.15984 9.68608C6.15887 9.79751 6.11418 9.90411 6.03538 9.98291C5.95658 10.0617 5.84998 10.1064 5.73855 10.1074C5.62712 10.1083 5.51976 10.0655 5.43961 9.98808ZM4.8395 8.78618C4.71567 8.90326 4.61656 9.04398 4.54804 9.20001C4.47951 9.35605 4.44297 9.52424 4.44056 9.69464C4.43815 9.86504 4.46992 10.0342 4.53401 10.1921C4.59809 10.35 4.69318 10.4935 4.81366 10.614C4.93413 10.7346 5.07755 10.8297 5.23543 10.8939C5.39331 10.958 5.56245 10.9899 5.73286 10.9876C5.90326 10.9852 6.07147 10.9488 6.22754 10.8803C6.38361 10.8119 6.52437 10.7128 6.6415 10.589C6.86971 10.3479 6.99485 10.0272 6.99031 9.69524C6.98577 9.36326 6.85192 9.04615 6.6172 8.81132C6.38249 8.5765 6.06544 8.44249 5.73346 8.4378C5.40148 8.4331 5.08076 8.55809 4.8395 8.78618Z" fill="black"/>
</svg>
