<svg width="17" height="16" viewBox="0 0 17 16" fill="none" xmlns="http://www.w3.org/2000/svg">
<path d="M0.0779438 15.2484C1.39381 13.0209 3.45958 11.4579 5.85994 10.795C4.69293 10.2139 3.75973 9.26468 3.2108 8.10043C2.66187 6.93618 2.52922 5.62475 2.83422 4.3776C3.13923 3.13046 3.86412 2.02029 4.892 1.2261C5.91989 0.431916 7.19087 0 8.5 0C9.80913 0 11.0801 0.431916 12.108 1.2261C13.1359 2.02029 13.8608 3.13046 14.1658 4.3776C14.4708 5.62475 14.3381 6.93618 13.7892 8.10043C13.2403 9.26468 12.3071 10.2139 11.1401 10.795C13.5404 11.4571 15.6062 13.0201 16.9221 15.2484C16.9582 15.304 16.9824 15.3663 16.9934 15.4314C17.0043 15.4965 17.0017 15.5631 16.9857 15.6272C16.9696 15.6913 16.9405 15.7515 16.9001 15.8043C16.8597 15.8571 16.8088 15.9013 16.7505 15.9343C16.6922 15.9674 16.6277 15.9885 16.5608 15.9964C16.494 16.0044 16.4262 15.999 16.3615 15.9806C16.2968 15.9622 16.2366 15.9312 16.1844 15.8895C16.1323 15.8477 16.0893 15.796 16.0581 15.7376C14.4593 13.0315 11.6344 11.4163 8.5 11.4163C5.36555 11.4163 2.54072 13.0315 0.941874 15.7376C0.910654 15.796 0.867687 15.8477 0.815554 15.8895C0.763422 15.9312 0.703203 15.9622 0.638519 15.9806C0.573835 15.999 0.506021 16.0044 0.439163 15.9964C0.372303 15.9885 0.307779 15.9674 0.249468 15.9343C0.191158 15.9013 0.140266 15.8571 0.0998592 15.8043C0.0594521 15.7515 0.0303612 15.6913 0.0143375 15.6272C-0.00168419 15.5631 -0.00431061 15.4965 0.00662041 15.4314C0.0175514 15.3663 0.0418129 15.304 0.0779438 15.2484ZM13.3273 5.70899C13.3273 4.7737 13.0442 3.85942 12.5138 3.08175C11.9834 2.30409 11.2294 1.69797 10.3473 1.34005C9.46526 0.982127 8.49465 0.888479 7.55823 1.07094C6.62182 1.25341 5.76167 1.7038 5.08655 2.36515C4.41143 3.0265 3.95167 3.86911 3.76541 4.78643C3.57915 5.70375 3.67474 6.65458 4.04011 7.51867C4.40548 8.38277 5.02422 9.12132 5.81807 9.64094C6.61192 10.1606 7.54524 10.4379 8.5 10.4379C9.77982 10.4364 11.0068 9.93769 11.9117 9.05117C12.8167 8.16466 13.3258 6.96272 13.3273 5.70899Z" fill="black"/>
</svg>
