<svg width="17" height="16" viewBox="0 0 17 16" fill="none" xmlns="http://www.w3.org/2000/svg">
<path d="M15.98 0.5H1.02C0.749479 0.5 0.490038 0.612882 0.298751 0.813814C0.107464 1.01475 0 1.28727 0 1.57143V14.4286C0 14.7127 0.107464 14.9853 0.298751 15.1862C0.490038 15.3871 0.749479 15.5 1.02 15.5H15.98C16.2505 15.5 16.51 15.3871 16.7012 15.1862C16.8925 14.9853 17 14.7127 17 14.4286V1.57143C17 1.28727 16.8925 1.01475 16.7012 0.813814C16.51 0.612882 16.2505 0.5 15.98 0.5ZM1.02 1.21429H15.98C16.0702 1.21429 16.1567 1.25191 16.2204 1.31889C16.2842 1.38587 16.32 1.47671 16.32 1.57143V11.6071L13.5244 8.67054C13.4296 8.57065 13.317 8.4914 13.193 8.43732C13.069 8.38324 12.9361 8.3554 12.8019 8.3554C12.6676 8.3554 12.5347 8.38324 12.4107 8.43732C12.2867 8.4914 12.1741 8.57065 12.0794 8.67054L10.1388 10.7089L6.1591 6.52768C6.06434 6.42779 5.95174 6.34854 5.82775 6.29446C5.70377 6.24038 5.57085 6.21255 5.4366 6.21255C5.30235 6.21255 5.16943 6.24038 5.04544 6.29446C4.92146 6.34854 4.80886 6.42779 4.7141 6.52768L0.68 10.7679V1.57143C0.68 1.47671 0.715821 1.38587 0.779584 1.31889C0.843346 1.25191 0.929826 1.21429 1.02 1.21429ZM0.68 14.4286V11.7804L5.19945 7.03304C5.23103 6.99983 5.26853 6.97349 5.3098 6.95551C5.35108 6.93754 5.39532 6.92829 5.44 6.92829C5.48468 6.92829 5.52892 6.93754 5.5702 6.95551C5.61147 6.97349 5.64897 6.99983 5.68055 7.03304L13.0611 14.7857H1.02C0.929826 14.7857 0.843346 14.7481 0.779584 14.6811C0.715821 14.6141 0.68 14.5233 0.68 14.4286ZM15.98 14.7857H14.025L10.625 11.2143L12.5655 9.17589C12.5971 9.14269 12.6346 9.11634 12.6759 9.09837C12.7172 9.0804 12.7614 9.07115 12.8061 9.07115C12.8508 9.07115 12.895 9.0804 12.9363 9.09837C12.9776 9.11634 13.0151 9.14269 13.0467 9.17589L16.32 12.617V14.4286C16.32 14.5233 16.2842 14.6141 16.2204 14.6811C16.1567 14.7481 16.0702 14.7857 15.98 14.7857ZM10.2 5.5C10.2 5.35873 10.2399 5.22063 10.3146 5.10316C10.3893 4.9857 10.4955 4.89415 10.6198 4.84009C10.744 4.78602 10.8808 4.77188 11.0127 4.79944C11.1446 4.827 11.2657 4.89503 11.3608 4.99492C11.4559 5.09482 11.5207 5.22209 11.5469 5.36065C11.5732 5.49921 11.5597 5.64283 11.5082 5.77335C11.4568 5.90386 11.3696 6.01542 11.2578 6.09391C11.146 6.17239 11.0145 6.21429 10.88 6.21429C10.6997 6.21429 10.5267 6.13903 10.3992 6.00508C10.2716 5.87112 10.2 5.68944 10.2 5.5Z" fill="black"/>
</svg>
